<?xml version="1.0" encoding="UTF-8" standalone="no"?>
<svg
   xmlns:osb="http://www.openswatchbook.org/uri/2009/osb"
   xmlns:dc="http://purl.org/dc/elements/1.1/"
   xmlns:cc="http://creativecommons.org/ns#"
   xmlns:rdf="http://www.w3.org/1999/02/22-rdf-syntax-ns#"
   xmlns:svg="http://www.w3.org/2000/svg"
   xmlns="http://www.w3.org/2000/svg"
   xmlns:xlink="http://www.w3.org/1999/xlink"
   xmlns:sodipodi="http://sodipodi.sourceforge.net/DTD/sodipodi-0.dtd"
   xmlns:inkscape="http://www.inkscape.org/namespaces/inkscape"
   version="1.1"
   width="64"
   height="64"
   id="svg3489"
   sodipodi:docname="mini-fighter.svg"
   viewBox="0 0 64 64"
   inkscape:version="0.92pre1 unknown">
  <sodipodi:namedview
     pagecolor="#ffffff"
     bordercolor="#666666"
     borderopacity="1"
     objecttolerance="10"
     gridtolerance="10"
     guidetolerance="10"
     inkscape:pageopacity="0"
     inkscape:pageshadow="2"
     inkscape:window-width="1600"
     inkscape:window-height="870"
     id="namedview39"
     showgrid="false"
     inkscape:zoom="2.2097087"
     inkscape:cx="66.8"
     inkscape:cy="25.6"
     inkscape:window-x="0"
     inkscape:window-y="30"
     inkscape:window-maximized="1"
     inkscape:current-layer="svg3489" />
  <defs
     id="defs3491">
    <linearGradient
       id="linearGradient4806">
      <stop
         id="stop4808"
         style="stop-color:#ffffff;stop-opacity:1"
         offset="0" />
      <stop
         id="stop4810"
         style="stop-color:#ffffff;stop-opacity:0.23529412"
         offset="0.42447853" />
      <stop
         id="stop4812"
         style="stop-color:#ffffff;stop-opacity:0.15686275"
         offset="0.82089913" />
      <stop
         id="stop4814"
         style="stop-color:#ffffff;stop-opacity:0.39215687"
         offset="1" />
    </linearGradient>
    <linearGradient
       id="linearGradient3820-7-2">
      <stop
         id="stop3822-2-6"
         style="stop-color:#000000;stop-opacity:1"
         offset="0" />
      <stop
         id="stop3824-1-2"
         style="stop-color:#000000;stop-opacity:0"
         offset="1" />
    </linearGradient>
    <radialGradient
       xlink:href="#linearGradient3820-7-2"
       id="radialGradient3300"
       gradientUnits="userSpaceOnUse"
       gradientTransform="matrix(0.3823536,7.5555777e-8,-1.8372241e-8,0.1115198,-5.9254271,36.335849)"
       cx="99.189415"
       cy="185.29727"
       fx="99.189415"
       fy="185.29727"
       r="62.769119" />
    <radialGradient
       xlink:href="#linearGradient3242"
       id="radialGradient4145"
       gradientUnits="userSpaceOnUse"
       gradientTransform="matrix(0,5.4369133,-5.7516053,-1.4798441e-7,80.599895,-27.377598)"
       cx="2.134201"
       cy="8.4497671"
       fx="2.134201"
       fy="8.4497671"
       r="19.99999" />
    <radialGradient
       xlink:href="#linearGradient3820-7-2"
       id="radialGradient4192"
       gradientUnits="userSpaceOnUse"
       gradientTransform="matrix(0.2549024,5.3967361e-8,-1.2248161e-8,0.07965545,6.7163816,44.240666)"
       cx="99.189415"
       cy="185.29727"
       fx="99.189415"
       fy="185.29727"
       r="62.769119" />
    <linearGradient
       gradientTransform="matrix(2.3632794,0,0,2.3632407,-138.57232,-33.856192)"
       gradientUnits="userSpaceOnUse"
       xlink:href="#linearGradient4806"
       id="linearGradient4338-5-6"
       y2="40.495617"
       x2="71.204407"
       y1="15.369057"
       x1="71.204407" />
    <linearGradient
       id="linearGradient4526"
       osb:paint="solid">
      <stop
         style="stop-color:#ffffff;stop-opacity:1;"
         offset="0"
         id="stop4528" />
    </linearGradient>
    <linearGradient
       id="linearGradient3242">
      <stop
         offset="0"
         style="stop-color:#f89b7e;stop-opacity:1"
         id="stop3244" />
      <stop
         offset="0.26238"
         style="stop-color:#e35d4f;stop-opacity:1"
         id="stop3246" />
      <stop
         offset="0.66093999"
         style="stop-color:#c6262e;stop-opacity:1"
         id="stop3248" />
      <stop
         offset="1"
         style="stop-color:#690b2c;stop-opacity:1"
         id="stop3250" />
    </linearGradient>
    <linearGradient
       gradientTransform="translate(-147.40151,1.3443199)"
       gradientUnits="userSpaceOnUse"
       xlink:href="#linearGradient5803-2-7"
       id="linearGradient4385-4"
       y2="54.780239"
       x2="167.98311"
       y1="8.50811"
       x1="167.98311" />
    <linearGradient
       id="linearGradient5803-2-7">
      <stop
         offset="0"
         style="stop-color:#fffdf3;stop-opacity:1"
         id="stop5805-3-6" />
      <stop
         offset="1"
         style="stop-color:#fbebeb;stop-opacity:1"
         id="stop5807-0-0" />
    </linearGradient>
  </defs>
  <metadata
     id="metadata3494">
    <rdf:RDF>
      <cc:Work
         rdf:about="">
        <dc:format>image/svg+xml</dc:format>
        <dc:type
           rdf:resource="http://purl.org/dc/dcmitype/StillImage" />
        <dc:title></dc:title>
      </cc:Work>
    </rdf:RDF>
  </metadata>
  <g
     id="g4198">
    <path
       d="m 55.999998,57.0017 a 24,6.9985714 0 1 1 -47.9999991,0 24,6.9985714 0 1 1 47.9999991,0 z"
       id="path3818-0"
       style="opacity:0.2;fill:url(#radialGradient3300);fill-opacity:1;stroke:none"
       inkscape:connector-curvature="0" />
    <path
       style="opacity:0.4;fill:url(#radialGradient4192);fill-opacity:1;stroke:none"
       id="path4190"
       d="m 47.999998,59.0017 a 16,4.9988822 0 1 1 -31.999999,0 16,4.9988822 0 1 1 31.999999,0 z"
       inkscape:connector-curvature="0" />
  </g>
  <path
     d="M 32.000004,2.4999968 C 15.722922,2.4999968 2.5,15.722913 2.5,31.999997 2.5,48.277081 15.722922,61.500004 32.000004,61.5 48.27708,61.5 61.500016,48.277081 61.5,31.999997 61.5,15.722913 48.27708,2.4999968 32.000004,2.4999968 Z"
     id="path2555"
     style="color:#000000;display:inline;overflow:visible;visibility:visible;fill:url(#radialGradient4145);fill-opacity:1;fill-rule:nonzero;stroke:none;stroke-width:1;marker:none;enable-background:accumulate"
     inkscape:connector-curvature="0" />
  <path
     style="color:#000000;display:inline;overflow:visible;visibility:visible;opacity:0.35;fill:none;stroke:#410000;stroke-width:1;marker:none;enable-background:accumulate;font-variant-east_asian:normal;fill-opacity:1;stroke-linecap:round;stroke-linejoin:round;stroke-miterlimit:4;stroke-dasharray:none;stroke-dashoffset:0;stroke-opacity:1"
     d="m 32,2.5665018 c -16.277083,0 -29.5,13.2226972 -29.5,29.4995142 0,16.276816 13.222917,29.499523 29.5,29.499517 16.27708,0 29.50001,-13.222701 29.5,-29.499517 C 61.5,15.789199 48.27708,2.5665018 32,2.5665018 Z"
     id="path4317" />
  <path
     style="color:#000000;display:inline;overflow:visible;visibility:visible;opacity:0.5;fill:none;stroke:url(#linearGradient4338-5-6);stroke-width:1;stroke-linecap:round;stroke-linejoin:round;stroke-miterlimit:4;stroke-dasharray:none;stroke-dashoffset:0;stroke-opacity:1;marker:none;enable-background:accumulate"
     d="m 60.500001,32 c 0,15.739856 -12.759898,28.499528 -28.500015,28.499528 C 16.259889,60.499528 3.4999989,47.739856 3.4999989,32 3.4999989,16.260145 16.259889,3.5004688 31.999986,3.5004688 47.740103,3.5004688 60.500001,16.260145 60.500001,32 Z"
     id="path4321" />
  <path
     sodipodi:type="inkscape:offset"
     inkscape:radius="1.0917016"
     inkscape:original="M 30.763672 20.083984 C 30.355686 20.396484 30.043186 20.661892 29.826172 20.878906 L 29.552734 20.957031 L 29.564453 20.957031 C 29.503689 21.174045 29.396484 21.40842 29.240234 21.660156 C 27.504123 23.969184 26.457465 25.391493 26.101562 25.929688 C 25.042535 27.53559 23.948785 29.220269 22.820312 30.982422 C 21.53559 32.97895 20.407769 34.510417 19.435547 35.578125 C 19.409505 35.543403 19.373481 35.527344 19.330078 35.527344 L 19.148438 34.003906 L 19.201172 25.396484 C 19.01888 25.309679 18.909722 25.200521 18.875 25.070312 C 18.822917 24.688368 18.640625 24.294705 18.328125 23.886719 C 17.954861 23.417969 17.556207 23.183594 17.130859 23.183594 C 16.957248 23.183594 16.809028 23.238715 16.6875 23.351562 C 16.401042 23.351562 16.213759 23.390625 16.126953 23.46875 C 15.684245 23.963542 15.397786 24.338108 15.267578 24.589844 C 15.033203 26.039496 14.439236 27.797309 13.484375 29.863281 C 13.302083 30.418837 12.91645 31.2602 12.326172 32.388672 L 10.423828 35.929688 C 10.015842 36.693576 9.6432292 37.427734 9.3046875 38.130859 L 8.2636719 39.810547 C 8.1074219 40.253255 7.9281684 40.625868 7.7285156 40.929688 C 7.4073351 41.658854 7.0917969 42.262804 6.7792969 42.740234 C 6.4667969 43.009332 6.3105469 43.368924 6.3105469 43.820312 C 6.3105469 44.132812 6.4016927 44.611545 6.5839844 45.253906 L 8.2109375 45.917969 C 8.6536458 45.77908 9.0362413 45.591797 9.3574219 45.357422 C 9.5223524 45.33138 9.6686198 45.318359 9.7988281 45.318359 C 9.859592 45.318359 9.921658 45.323351 9.9824219 45.332031 L 10.658203 43.625 C 10.6148 43.572917 10.588759 43.530816 10.580078 43.496094 L 12.181641 39.902344 L 14.876953 34.589844 L 15.060547 36.958984 C 15.234158 39.215929 15.4375 40.799479 15.671875 41.710938 C 15.958333 42.06684 16.184679 42.332248 16.349609 42.505859 C 16.601345 42.505859 16.848741 42.588976 17.091797 42.753906 L 17.443359 42.988281 C 17.799262 42.988281 18.09375 43.009332 18.328125 43.052734 C 18.779514 42.705512 19.021918 42.505208 19.056641 42.453125 C 19.082682 42.453125 19.147786 42.463108 19.251953 42.480469 C 19.347439 42.515191 19.409505 42.53125 19.435547 42.53125 C 19.704644 42.53125 20.059245 42.171658 20.501953 41.451172 C 20.554036 40.765408 20.858507 40.174479 21.414062 39.679688 C 21.318576 39.584201 21.271484 39.490017 21.271484 39.394531 C 21.271484 39.238281 21.396701 39.095052 21.648438 38.964844 C 21.830729 38.574219 22.151259 38.134549 22.611328 37.648438 C 23.314453 36.407118 23.970486 35.378472 24.578125 34.5625 C 24.725694 34.041667 24.842882 33.695095 24.929688 33.521484 C 24.938368 33.530165 24.95638 33.538194 24.982422 33.546875 C 25.025825 33.546875 25.090929 33.520833 25.177734 33.46875 C 25.177734 33.407986 25.185764 33.339844 25.203125 33.261719 C 25.246528 33.079427 25.267578 32.957248 25.267578 32.896484 L 25.267578 32.871094 C 25.423828 32.81033 25.532986 32.722222 25.59375 32.609375 C 25.689236 32.184028 25.884549 31.785373 26.179688 31.412109 C 26.483507 30.752387 26.840061 30.192491 27.248047 29.732422 C 27.551866 29.194227 27.807292 28.782552 28.015625 28.496094 C 28.432292 28.166233 28.661675 27.99197 28.705078 27.974609 C 28.870009 27.636068 28.984158 27.388672 29.044922 27.232422 C 29.157769 27.449436 29.212891 27.66276 29.212891 27.871094 L 29.212891 30.527344 L 28.5625 37.804688 L 28.5625 40.669922 C 28.5625 41.347005 28.809896 42.055122 29.304688 42.792969 C 29.356771 42.749566 29.434896 42.726562 29.539062 42.726562 C 29.669271 42.726563 29.981771 42.874783 30.476562 43.169922 C 30.476562 43.204644 30.541667 43.27474 30.671875 43.378906 C 30.845486 43.205295 31.019748 43.104167 31.193359 43.078125 C 31.35829 42.921875 31.465495 42.804687 31.517578 42.726562 C 31.534939 42.735243 31.552951 42.740234 31.570312 42.740234 C 31.752604 42.740234 32.122179 42.552951 32.677734 42.179688 L 32.951172 40.34375 L 32.951172 38.078125 L 33.757812 30.332031 L 33.498047 30.044922 L 33.498047 29.25 C 33.524089 29.145833 33.553168 29.09375 33.587891 29.09375 C 33.605252 28.494792 33.628255 28.039062 33.654297 27.726562 C 33.628255 27.578993 33.615234 27.453776 33.615234 27.349609 C 33.615234 27.236762 33.628255 27.140625 33.654297 27.0625 C 33.610894 26.75 33.571832 26.546658 33.537109 26.451172 L 33.419922 24.238281 C 33.3852 23.734809 33.362196 23.482422 33.353516 23.482422 L 33.353516 22.53125 C 33.353516 22.513889 33.26237 22.302517 33.080078 21.894531 C 32.906467 21.486545 32.812283 21.247179 32.794922 21.177734 C 32.4477 20.787109 32.1773 20.500651 31.986328 20.318359 C 31.474175 20.205512 31.067491 20.127387 30.763672 20.083984 z M 50.867188 21.125 L 47.767578 21.255859 L 40.685547 21.894531 L 36.595703 22.636719 C 36.092231 23.513455 35.841797 24.086372 35.841797 24.355469 C 35.841797 24.450955 36.006076 24.953776 36.335938 25.865234 L 36.335938 25.917969 C 36.335938 26.013455 36.379991 26.138672 36.466797 26.294922 C 36.640408 26.294922 36.744575 26.312934 36.779297 26.347656 L 36.779297 26.802734 L 36.009766 30.357422 C 35.818793 31.989366 35.529297 33.924479 35.138672 36.164062 L 34.904297 38.820312 C 34.843533 39.575521 34.80447 40.148438 34.787109 40.539062 L 34.994141 42.441406 L 35.267578 42.701172 C 35.267578 42.952908 35.337674 43.226345 35.476562 43.521484 L 35.529297 43.521484 C 35.694227 43.521484 35.811415 43.607639 35.880859 43.78125 C 35.985026 43.746528 36.071181 43.730469 36.140625 43.730469 C 36.288194 44.121094 36.475477 44.316406 36.701172 44.316406 L 36.896484 44.316406 L 37.078125 44.132812 C 37.381944 44.306424 37.551215 44.394531 37.585938 44.394531 C 37.724826 44.012587 37.820964 43.747179 37.873047 43.599609 C 37.92513 43.634332 37.990234 43.652344 38.068359 43.652344 C 38.08572 43.669705 38.1148 43.773872 38.158203 43.964844 C 38.192925 44.112413 38.231988 44.185547 38.275391 44.185547 C 38.344835 44.185547 38.396918 44.159505 38.431641 44.107422 C 38.466363 44.046658 38.544488 44.002604 38.666016 43.976562 L 38.914062 43.925781 C 38.792535 43.639323 38.683377 43.496094 38.587891 43.496094 C 38.935113 43.200955 39.19553 42.956597 39.369141 42.765625 C 39.386502 42.626736 39.430556 42.519531 39.5 42.441406 C 39.5 41.469184 39.50803 40.974392 39.525391 40.957031 L 39.578125 37.623047 C 39.717014 37.501519 39.787109 37.405382 39.787109 37.335938 C 39.743707 37.292535 39.720703 36.945964 39.720703 36.294922 C 39.911675 35.253255 40.059896 34.659288 40.164062 34.511719 L 40.476562 34.511719 C 40.502604 34.511719 40.60178 34.553819 40.775391 34.640625 L 43.419922 34.328125 C 43.463325 34.328125 43.5625 34.338108 43.71875 34.355469 C 43.875 34.37283 43.961155 34.380859 43.978516 34.380859 C 44.178168 34.380859 44.422526 34.297743 44.708984 34.132812 C 45.524957 33.976563 45.993707 33.898438 46.115234 33.898438 C 46.349609 33.768229 46.500868 33.634983 46.570312 33.496094 L 46.726562 33.496094 L 46.726562 33.599609 L 46.751953 33.599609 C 46.882161 33.599609 47.220703 33.45638 47.767578 33.169922 L 47.873047 33.300781 L 48.302734 33.300781 C 48.519748 33.092448 48.741102 32.988281 48.966797 32.988281 C 49.001519 32.988281 49.082682 32.996311 49.212891 33.013672 C 49.35178 33.031033 49.429905 33.039062 49.447266 33.039062 C 49.811849 32.813368 50.176432 32.670139 50.541016 32.609375 C 50.419488 32.609375 50.286241 32.567274 50.138672 32.480469 C 50.763672 32.254774 51.227431 32.119575 51.53125 32.076172 C 51.730903 31.902561 51.874132 31.806424 51.960938 31.789062 C 52.030382 31.867187 52.074436 31.929253 52.091797 31.972656 C 52.60395 31.668837 53.062717 31.442491 53.470703 31.294922 L 53.458984 31.294922 C 53.441623 31.294922 53.376519 31.237847 53.263672 31.125 C 53.263672 31.090278 53.279731 31.061198 53.314453 31.035156 C 53.531467 31.035156 53.661675 31.064236 53.705078 31.125 C 53.800564 31.029514 53.857639 30.96441 53.875 30.929688 C 53.814236 30.868924 53.728082 30.839844 53.615234 30.839844 C 53.589193 30.839844 53.563151 30.842882 53.537109 30.851562 L 53.470703 30.617188 C 53.687717 30.426215 53.840929 30.292969 53.927734 30.214844 C 53.823568 29.893663 53.758464 29.662326 53.732422 29.523438 C 53.194227 29.323785 52.902778 29.190538 52.859375 29.121094 L 51.857422 29.121094 C 51.816618 29.088451 51.797365 29.023848 51.794922 28.9375 C 51.788586 28.971004 51.615945 28.990234 51.257812 28.990234 C 51.240451 28.990234 51.110243 28.956163 50.867188 28.886719 C 50.606771 28.817274 50.463542 28.78125 50.4375 28.78125 L 49.759766 28.847656 C 49.317057 28.882378 49.027561 28.898438 48.888672 28.898438 L 43.289062 29.835938 L 40.984375 29.927734 C 40.845486 29.86697 40.73329 29.780816 40.646484 29.667969 L 40.646484 29.277344 C 40.88954 28.218316 41.079861 27.401042 41.21875 26.828125 C 41.262153 26.628472 41.397352 26.464193 41.623047 26.333984 C 42.873047 26.099609 43.748481 25.982422 44.251953 25.982422 C 44.425564 25.982422 44.604818 25.896267 44.787109 25.722656 C 44.839193 25.722656 44.873264 25.735677 44.890625 25.761719 C 45.28125 25.770399 45.619792 25.773438 45.90625 25.773438 C 46.192708 25.773438 46.432075 25.770399 46.623047 25.761719 C 46.961589 25.674913 47.15191 25.62283 47.195312 25.605469 C 47.15191 25.605469 47.104818 25.587457 47.052734 25.552734 C 47.208984 25.587457 47.368273 25.605469 47.533203 25.605469 C 47.706814 25.605469 47.886068 25.587457 48.068359 25.552734 C 47.972873 25.552734 47.907769 25.521701 47.873047 25.460938 C 48.020616 25.356771 48.137804 25.304688 48.224609 25.304688 C 48.294054 25.374132 48.328125 25.465278 48.328125 25.578125 C 48.345486 25.578125 48.402561 25.562066 48.498047 25.527344 C 48.602214 25.483941 48.662326 25.460938 48.679688 25.460938 C 48.636285 25.443576 48.605252 25.422526 48.587891 25.396484 C 48.587891 25.33572 48.666016 25.262587 48.822266 25.175781 C 48.900391 25.210503 48.939453 25.296658 48.939453 25.435547 C 49.19987 25.348741 49.408203 25.304688 49.564453 25.304688 C 49.755425 25.304687 49.986762 25.348741 50.255859 25.435547 C 50.438151 25.33138 50.542318 25.261285 50.568359 25.226562 C 50.698568 25.365451 50.857856 25.435547 51.048828 25.435547 C 51.048828 25.33138 51.097873 25.245226 51.193359 25.175781 L 51.322266 25.123047 C 51.417752 25.105686 51.51888 25.097656 51.623047 25.097656 C 51.66645 25.132378 51.6875 25.200521 51.6875 25.304688 L 54.109375 25.226562 C 54.230903 25.226563 54.366102 25.184462 54.513672 25.097656 C 54.6352 25.236545 54.794488 25.304688 54.994141 25.304688 L 55.333984 25.304688 C 55.333984 25.18316 55.324002 25.115017 55.306641 25.097656 C 55.523655 25.097656 55.658854 25.123698 55.710938 25.175781 C 55.893229 25.088976 56.010417 25.044922 56.0625 25.044922 L 56.087891 25.044922 C 56.200738 25.097005 56.301866 25.141059 56.388672 25.175781 L 56.505859 25.044922 C 56.601345 25.131727 56.700521 25.175781 56.804688 25.175781 C 56.865451 25.167101 57.117839 25.083984 57.560547 24.927734 C 57.412977 24.832248 57.337891 24.70204 57.337891 24.537109 L 57.337891 24.433594 L 57.611328 24.160156 C 57.611328 24.134115 57.624349 24.050998 57.650391 23.912109 C 57.676432 23.76454 57.689453 23.686415 57.689453 23.677734 C 57.689453 23.660373 57.650391 23.551215 57.572266 23.351562 C 57.502821 23.15191 57.46875 23.031684 57.46875 22.988281 C 57.164931 22.588976 56.70421 22.276476 56.087891 22.050781 C 55.054905 21.677517 54.531033 21.482205 54.513672 21.464844 C 54.261936 21.41276 54.100694 21.381727 54.03125 21.373047 L 53.822266 21.490234 C 53.483724 21.394748 53.272352 21.308594 53.185547 21.230469 L 50.867188 21.125 z M 51.794922 28.9375 C 51.795036 28.936897 51.804688 28.938114 51.804688 28.9375 L 51.791016 28.925781 C 51.791016 28.931499 51.794766 28.932 51.794922 28.9375 z M 50.060547 32.402344 C 50.060547 32.489149 49.982422 32.567274 49.826172 32.636719 C 49.765408 32.549913 49.734375 32.492839 49.734375 32.466797 C 49.855903 32.449436 49.965061 32.428385 50.060547 32.402344 z "
     style="font-style:normal;font-variant:normal;font-weight:900;font-stretch:normal;font-size:26.66666603px;line-height:25px;font-family:'Daniel Black';-inkscape-font-specification:'Daniel Black, Heavy';letter-spacing:0px;word-spacing:0px;opacity:0.15;fill:#661215;fill-opacity:1;stroke:none;stroke-width:1;stroke-linecap:butt;stroke-linejoin:miter;stroke-miterlimit:4;stroke-dasharray:none;stroke-dashoffset:0;stroke-opacity:1;marker:none;font-variant-east_asian:normal"
     id="text4284-0-17"
     d="m 30.701172,18.994141 a 1.0918108,1.0918108 0 0 0 -0.601563,0.222656 c -0.327234,0.250648 -0.559856,0.462408 -0.792968,0.675781 l -0.05469,0.01563 a 1.0918108,1.0918108 0 0 0 -0.759765,0.798828 c -0.02867,0.08869 -0.07758,0.206395 -0.171876,0.361328 -1.692216,2.251344 -2.724045,3.647537 -3.128906,4.259766 a 1.0918108,1.0918108 0 0 0 -0.002,0 c -1.062022,1.610444 -2.158237,3.30058 -3.289062,5.066406 -0.638613,0.992328 -1.10071,1.500489 -1.652344,2.248047 l 0.04492,-7.240234 A 1.0918108,1.0918108 0 0 0 19.746094,24.451172 C 19.61023,24.024515 19.480188,23.594577 19.195312,23.222656 a 1.0918108,1.0918108 0 0 0 -0.01367,-0.01563 c -0.498756,-0.626344 -1.224401,-1.115234 -2.050782,-1.115234 -0.404685,0 -0.869573,0.165582 -1.185547,0.458984 L 16.6875,22.259766 c -0.385705,0 -0.758361,-0.08095 -1.291016,0.398437 a 1.0918108,1.0918108 0 0 0 -0.08398,0.08203 c -0.469224,0.524428 -0.786305,0.908079 -1.013672,1.347657 a 1.0918108,1.0918108 0 0 0 -0.109375,0.328125 c -0.210185,1.300036 -0.767057,2.979873 -1.695312,4.988281 a 1.0918108,1.0918108 0 0 0 -0.04687,0.119141 c -0.141894,0.432436 -0.510396,1.255341 -1.087891,2.359374 l -1.8964844,3.529297 a 1.0918108,1.0918108 0 0 0 -0.00195,0.0039 C 9.0566577,36.172964 8.6880458,36.900661 8.3496094,37.601562 L 7.3359375,39.236328 A 1.0918108,1.0918108 0 0 0 7.234375,39.447266 c -0.1330211,0.376892 -0.2785941,0.67072 -0.4179688,0.882812 a 1.0918108,1.0918108 0 0 0 -0.087891,0.160156 C 6.4240193,41.181523 6.1311091,41.736381 5.8652344,42.142578 L 6.0664062,41.912109 C 5.5258527,42.377587 5.21875,43.116993 5.21875,43.820312 c 0,0.524776 0.1193624,1.04496 0.3144531,1.732422 a 1.0918108,1.0918108 0 0 0 0.6386719,0.712891 l 1.6269531,0.664063 a 1.0918108,1.0918108 0 0 0 0.7382813,0.0293 c 0.3990113,-0.12518 0.741635,-0.327681 1.0839844,-0.53125 0.065909,-0.0073 0.1401193,-0.01758 0.1777343,-0.01758 9.721e-4,0 0.013549,-2.96e-4 0.029297,0.002 a 1.0918108,1.0918108 0 0 0 1.169922,-0.677734 l 0.675781,-1.707031 a 1.0918108,1.0918108 0 0 0 0.07422,-0.464844 l 1.419922,-3.191406 0.984375,-1.941406 c 0.137285,1.373705 0.26696,2.790783 0.46289,3.552734 a 1.0918108,1.0918108 0 0 0 0.207032,0.412109 c 0.296359,0.368204 0.532256,0.648469 0.736328,0.863281 a 1.0918108,1.0918108 0 0 0 0.791015,0.339844 c 0.01143,0 0.02965,-0.0068 0.128907,0.06055 a 1.0918108,1.0918108 0 0 0 0.0078,0.0039 l 0.351563,0.234375 a 1.0918108,1.0918108 0 0 0 0.605468,0.183594 c 0.312855,0 0.550018,0.02178 0.685547,0.04687 a 1.0918108,1.0918108 0 0 0 0.865235,-0.208984 c 0.163174,-0.125519 0.271387,-0.214302 0.386718,-0.306641 0.03713,0.0012 0.008,0.01172 0.05469,0.01172 0.620826,0 0.969823,-0.317783 1.244141,-0.595703 0.274317,-0.277921 0.504945,-0.601914 0.751953,-1.003906 a 1.0918108,1.0918108 0 0 0 0.158203,-0.490235 c 0.03134,-0.412627 0.169672,-0.699638 0.550781,-1.039062 a 1.0918108,1.0918108 0 0 0 0.363281,-0.853516 1.0918108,1.0918108 0 0 0 0.134766,-0.214844 c 0.107658,-0.230697 0.357447,-0.596061 0.765625,-1.027343 a 1.0918108,1.0918108 0 0 0 0.15625,-0.212891 c 0.687073,-1.212981 1.322628,-2.205342 1.892578,-2.970703 a 1.0918108,1.0918108 0 0 0 0.175781,-0.355469 c 0.08061,-0.284506 0.105381,-0.335816 0.158203,-0.486328 a 1.0918108,1.0918108 0 0 0 0.482422,-0.871094 l -0.0039,0.01172 c 0.0021,-0.0087 0.0019,-0.01705 0.0039,-0.02539 0.01087,-0.04421 0.0098,-0.097 0.01953,-0.134765 0.08348,-0.09092 0.203943,-0.112011 0.265626,-0.226563 a 1.0918108,1.0918108 0 0 0 0.103515,-0.279297 c 0.05773,-0.257155 0.171037,-0.497388 0.376953,-0.757812 a 1.0918108,1.0918108 0 0 0 0.136719,-0.220703 c 0.266239,-0.57812 0.566824,-1.04477 0.892578,-1.41211 a 1.0918108,1.0918108 0 0 0 0.05664,-0.07031 v 0.0918 l -0.646485,7.228515 a 1.0918108,1.0918108 0 0 0 -0.0039,0.09766 v 2.865234 c 0,0.943011 0.346745,1.864082 0.927735,2.730469 a 1.0918108,1.0918108 0 0 0 1.085937,0.466797 c 0.06547,0.03296 0.165189,0.08961 0.265625,0.146484 0.08427,0.0874 0.158831,0.151675 0.240234,0.216797 a 1.0918108,1.0918108 0 0 0 1.453125,-0.08008 c 0.06522,-0.06522 0.04254,-0.01175 -0.08789,0.0078 a 1.0918108,1.0918108 0 0 0 0.58789,-0.287109 c 0.06915,-0.06551 0.11585,-0.137006 0.173829,-0.195313 0.101491,-0.04323 0.26064,-0.05157 0.359374,-0.101562 0.249105,-0.126126 0.50991,-0.286291 0.810547,-0.488281 a 1.0918108,1.0918108 0 0 0 0.470703,-0.746094 l 0.07227,-0.490235 0.07813,0.708985 a 1.0918108,1.0918108 0 0 0 0.333985,0.673828 l 0.08203,0.07813 c 0.05479,0.225978 0.06456,0.464336 0.164062,0.675781 a 1.0918108,1.0918108 0 0 0 0.617188,0.5625 1.0918108,1.0918108 0 0 0 0.433593,0.269531 c 0.02881,0.03456 0.03183,0.07334 0.06445,0.107422 0.245438,0.256406 0.669896,0.482422 1.097656,0.482422 h 0.195312 a 1.0918108,1.0918108 0 0 0 0.22461,-0.02344 c 0.05632,0.03075 0.01163,0.101562 0.464844,0.101562 a 1.0918108,1.0918108 0 0 0 0.65625,-0.220703 c 0.01365,5.65e-4 0.01943,0.01172 0.0332,0.01172 0.305875,0 0.704787,-0.227885 0.951171,-0.503906 -0.141422,0.124462 -0.310524,0.266875 -0.332031,0.271484 l 0.238281,-0.04883 A 1.0918108,1.0918108 0 0 0 39.978516,43.6875 c 0.05766,-0.0584 0.147838,-0.130982 0.199218,-0.1875 a 1.0918108,1.0918108 0 0 0 0.25586,-0.494141 1.0918108,1.0918108 0 0 0 0.158203,-0.564453 c 0,-0.483105 0.0019,-0.846943 0.0059,-1.082031 0.0019,-0.114747 0.0038,-0.198272 0.0059,-0.240234 4.9e-5,-0.001 -4.9e-5,-0.0049 0,-0.0059 a 1.0918108,1.0918108 0 0 0 0.01367,-0.138672 l 0.04687,-3.011718 c 0.09664,-0.144999 0.214844,-0.298403 0.214844,-0.626953 a 1.0918108,1.0918108 0 0 0 -0.04883,-0.322266 1.0918108,1.0918108 0 0 0 0,-0.002 c -0.0017,-0.01665 -0.0021,-0.01128 -0.0039,-0.03906 -0.0071,-0.110872 -0.0102,-0.330644 -0.01172,-0.576172 0.05331,-0.28553 0.09648,-0.475386 0.140625,-0.677734 l 2.496094,-0.294922 c -0.02951,0.0013 0.02163,0.0037 0.146484,0.01758 0.08165,0.0091 0.145844,0.01456 0.197266,0.01953 0.05142,0.005 0.0066,0.01172 0.183594,0.01172 0.502638,0 0.893723,-0.174782 1.27539,-0.394531 l -0.339844,0.126953 c 0.403071,-0.07718 0.718216,-0.135328 0.9375,-0.171875 0.219285,-0.03655 0.436846,-0.04297 0.263672,-0.04297 a 1.0918108,1.0918108 0 0 0 0.529297,-0.136718 c 0.07048,-0.03916 0.119943,-0.137345 0.189453,-0.181641 0.351673,-0.01818 0.502474,-0.09224 0.695313,-0.173828 0.06623,-0.02802 0.156882,-0.07806 0.228515,-0.111328 a 1.0918108,1.0918108 0 0 0 0.115235,0.0059 h 0.429687 a 1.0918108,1.0918108 0 0 0 0.75,-0.298828 c 0.01694,0.0017 -0.002,-3.96e-4 0.01563,0.002 a 1.0918108,1.0918108 0 0 0 0.0098,0.002 c 0.07389,0.0092 0.132585,0.01624 0.181641,0.02148 0.04906,0.0052 0.01053,0.01172 0.1875,0.01172 a 1.0918108,1.0918108 0 0 0 0.574218,-0.164062 c 0.263391,-0.163051 0.492628,-0.246818 0.699219,-0.28125 A 1.0918108,1.0918108 0 0 0 51.4375,33.230469 c 0.05526,-0.01282 0.217754,-0.06989 0.248047,-0.07422 a 1.0918108,1.0918108 0 0 0 0.316406,-0.0957 1.0918108,1.0918108 0 0 0 0.646485,-0.148438 c 0.470744,-0.279254 0.874987,-0.474688 1.193359,-0.589843 a 1.0918108,1.0918108 0 0 0 0.382812,-0.238282 1.0918108,1.0918108 0 0 0 0.251953,-0.1875 c 0.117123,-0.117122 0.173737,-0.07599 0.375,-0.478515 a 1.0918108,1.0918108 0 0 0 0.07617,-0.769531 1.0918108,1.0918108 0 0 0 0.03906,-0.769532 c -0.09789,-0.301826 -0.156338,-0.525858 -0.162109,-0.55664 A 1.0918108,1.0918108 0 0 0 54.111328,28.5 c -0.255094,-0.09463 -0.444991,-0.172788 -0.544922,-0.21875 -0.0234,-0.01076 -0.01774,-0.0077 -0.0293,-0.01367 a 1.0918108,1.0918108 0 0 0 -0.677734,-0.238281 h -0.443359 a 1.0918108,1.0918108 0 0 0 -0.976563,-0.136719 c -0.01715,7.72e-4 -0.03723,0.0012 -0.06055,0.002 -0.05365,-0.01451 -0.115018,-0.02923 -0.210937,-0.05664 a 1.0918108,1.0918108 0 0 0 -0.01953,-0.0059 c -0.132945,-0.03545 -0.237212,-0.06298 -0.322266,-0.08398 -0.04253,-0.0105 -0.07847,-0.01835 -0.121094,-0.02734 -0.04263,-0.009 -0.0094,-0.03125 -0.267578,-0.03125 a 1.0918108,1.0918108 0 0 0 -0.107422,0.0059 l -0.65625,0.06445 c -0.0021,1.68e-4 -0.0018,-1.67e-4 -0.0039,0 l -0.01758,0.002 c -0.412883,0.03187 -0.710441,0.04492 -0.763672,0.04492 a 1.0918108,1.0918108 0 0 0 -0.179688,0.01563 l -5.53125,0.925781 -1.298828,0.05078 c 0.125562,-0.542424 0.249775,-1.0797 0.337891,-1.447266 0.925948,-0.158671 1.755125,-0.277343 2.035156,-0.277343 0.217569,0 0.339038,-0.156527 0.523438,-0.228516 a 1.0918108,1.0918108 0 0 0 0.0918,0.0078 c 0.398972,0.0089 0.744883,0.01172 1.039062,0.01172 0.294179,0 0.544864,-0.0036 0.765625,-0.01367 a 1.0918108,1.0918108 0 0 0 0.222656,-0.0332 c 0.172478,-0.04423 0.307204,-0.07876 0.41211,-0.107421 0.03272,-0.0089 0.07005,-0.02422 0.0918,-0.0293 0.04572,0.0019 0.08878,0.01563 0.134765,0.01563 0.187995,0 0.373682,-0.0276 0.558594,-0.05469 a 1.0918108,1.0918108 0 0 0 0.236328,0.02734 c 0.34529,0 0.301742,-0.03852 0.363281,-0.05664 0.06154,-0.01812 0.117092,-0.03778 0.179688,-0.06055 a 1.0918108,1.0918108 0 0 0 0.04687,-0.01758 c 0.012,-0.005 0.01153,-0.0038 0.02148,-0.0078 a 1.0918108,1.0918108 0 0 0 0.345703,-0.05664 c 0.199828,-0.06661 0.328243,-0.07422 0.279297,-0.07422 0.02308,0 0.157645,0.01431 0.355469,0.07813 a 1.0918108,1.0918108 0 0 0 0.841797,-0.07227 c 0.105388,0.02136 0.184097,0.125 0.287109,0.125 a 1.0918108,1.0918108 0 0 0 0.527344,-0.136719 1.0918108,1.0918108 0 0 0 0.146484,0.0059 l 2.421875,-0.07813 h -0.03516 c 0.167024,2e-6 0.282563,-0.08379 0.427734,-0.125 0.165775,0.05047 0.299891,0.203125 0.457032,0.203125 h 0.339843 a 1.0918108,1.0918108 0 0 0 0.535157,-0.142578 1.0918108,1.0918108 0 0 0 0.179687,-0.04102 1.0918108,1.0918108 0 0 0 0.002,0 1.0918108,1.0918108 0 0 0 0.644531,0.0098 c 0.04298,0.0043 0.06562,0.04492 0.109376,0.04492 a 1.0918108,1.0918108 0 0 0 0.154296,-0.01172 c 0.303825,-0.0434 0.282153,-0.06544 0.421875,-0.111328 0.139723,-0.04589 0.317506,-0.107925 0.542969,-0.1875 a 1.0918108,1.0918108 0 0 0 0.679688,-1.345703 1.0918108,1.0918108 0 0 0 0.0957,-0.363281 c -8.3e-5,5.28e-4 7.2e-5,-0.0025 0,-0.002 0.0038,-0.02416 0.01178,-0.07063 0.02344,-0.132813 a 1.0918108,1.0918108 0 0 0 0.002,-0.01172 c 0.01334,-0.07559 0.02366,-0.134158 0.03125,-0.179687 0.0038,-0.02276 0.0085,-0.04109 0.01172,-0.0625 0.0016,-0.01071 0.0016,-0.02099 0.0039,-0.03906 0.0023,-0.01807 0.0098,-0.141492 0.0098,-0.142578 0,-0.413725 -0.04339,-0.310636 -0.05664,-0.353515 -0.01326,-0.04288 -0.02417,-0.07332 -0.03711,-0.109375 -0.02205,-0.06143 -0.05123,-0.138398 -0.08398,-0.222656 l -0.0059,-0.01953 c -0.003,-0.0077 -0.0047,-0.01161 -0.0078,-0.01953 -0.02037,-0.0604 -0.03893,-0.119553 -0.04492,-0.140625 A 1.0918108,1.0918108 0 0 0 58.337891,22.328125 C 57.87823,21.724 57.219796,21.302568 56.462891,21.025391 a 1.0918108,1.0918108 0 0 0 -0.0039,-0.002 c -0.51473,-0.185996 -0.902301,-0.326588 -1.158203,-0.421876 -0.12795,-0.04764 -0.223097,-0.08535 -0.279297,-0.107421 -0.0281,-0.01103 -0.04832,-0.0182 -0.04687,-0.01758 a 1.0918108,1.0918108 0 0 0 -0.240234,-0.08008 c -0.258056,-0.05339 -0.387521,-0.08482 -0.568359,-0.107422 a 1.0918108,1.0918108 0 0 0 -0.390625,0.02344 1.0918108,1.0918108 0 0 0 -0.541016,-0.171875 l -2.318359,-0.105469 a 1.0918108,1.0918108 0 0 0 -0.0957,0 l -3.099609,0.13086 a 1.0918108,1.0918108 0 0 0 -0.05078,0.002 l -7.082031,0.638672 a 1.0918108,1.0918108 0 0 0 -0.09766,0.01367 L 36.400391,21.5625 a 1.0918108,1.0918108 0 0 0 -0.751953,0.53125 c -0.263949,0.459634 -0.468236,0.847076 -0.619141,1.191406 C 34.878392,23.629487 34.75,23.882258 34.75,24.355469 c 0,0.336908 0.04188,0.33402 0.07031,0.4375 0.02843,0.10348 0.06308,0.216009 0.107422,0.351562 0.08869,0.271107 0.213803,0.630194 0.38086,1.091797 l -0.04297,-0.242187 c 0.02015,0.367024 0.126151,0.614182 0.246094,0.830078 a 1.0918108,1.0918108 0 0 0 0.111328,0.162109 l -0.679688,3.140625 a 1.0918108,1.0918108 0 0 0 -0.01758,0.103516 c -0.04231,0.361593 -0.142935,0.901637 -0.195312,1.294922 L 34.84375,30.445312 A 1.0918108,1.0918108 0 0 0 34.589844,29.625 V 29.523438 A 1.0918108,1.0918108 0 0 0 34.679688,29.125 c 0.01702,-0.587073 0.03933,-1.03061 0.0625,-1.308594 a 1.0918108,1.0918108 0 0 0 -0.01367,-0.279297 c -0.0185,-0.104817 -0.02148,-0.174309 -0.02148,-0.1875 0,-0.02887 0.0068,-0.01461 -0.01758,0.05859 a 1.0918108,1.0918108 0 0 0 0.04687,-0.496094 c -0.02917,-0.210014 -0.07426,-0.360188 -0.109375,-0.519531 v -0.0078 l -0.117187,-2.205078 a 1.0918108,1.0918108 0 0 0 0,-0.01563 c -0.01764,-0.255753 -0.03257,-0.450539 -0.04492,-0.589843 -0.0062,-0.06965 -0.01252,-0.123252 -0.01953,-0.179688 V 22.53125 c 0,-5.43e-4 -0.01179,-0.168896 -0.01953,-0.208984 -0.0077,-0.04009 -0.01408,-0.06405 -0.01953,-0.08398 -0.01091,-0.03986 -0.01914,-0.062 -0.02539,-0.08008 -0.0125,-0.03615 -0.02013,-0.05704 -0.0293,-0.08008 -0.01833,-0.04607 -0.03766,-0.0926 -0.0625,-0.150391 -0.04968,-0.115571 -0.120744,-0.272284 -0.21289,-0.478515 -0.07977,-0.1878 -0.141168,-0.341345 -0.181641,-0.44336 -0.0421,-0.106108 -0.07341,-0.223348 -0.04102,-0.09375 A 1.0918108,1.0918108 0 0 0 33.611328,20.453125 C 33.253201,20.050232 32.972097,19.750621 32.740234,19.529297 A 1.0918108,1.0918108 0 0 0 32.220703,19.251953 C 31.693352,19.135757 31.26833,19.053958 30.917969,19.003906 a 1.0918108,1.0918108 0 0 0 -0.216797,-0.0098 z m -10.865234,5.660156 c 0.04305,0.05835 0.0677,0.03706 0.09375,0.134765 l 0.02734,0.132813 c -0.01334,-0.09784 -0.09821,-0.172464 -0.121093,-0.267578 z m 38.59375,0.226562 v 0.0059 l -0.04688,0.04492 a 1.0918108,1.0918108 0 0 0 0.04688,-0.05078 z m -9.046876,6.757813 1.267579,0.351562 -0.07031,0.759766 -0.460937,0.53125 -1.150391,-0.878906 c 0,-0.28411 0.157829,-0.544548 0.261719,-0.648438 0.10389,-0.10389 0.153335,-0.115675 0.152343,-0.115234 z m -8.822265,9.660156 c -0.0026,0.0091 -0.01302,0.03906 -0.01563,0.04492 a 1.0918108,1.0918108 0 0 0 0.01563,-0.04492 z m -21.681641,2.207031 c 0.04408,0.01603 0.151253,0.02033 0.179688,0.03711 l -0.002,0.002 c -0.252967,0 -0.08272,-0.0047 0.01563,0.01172 z" />
  <text
     xml:space="preserve"
     style="font-style:normal;font-variant:normal;font-weight:900;font-stretch:normal;font-size:26.66666603px;line-height:25px;font-family:'Daniel Black';-inkscape-font-specification:'Daniel Black, Heavy';letter-spacing:0px;word-spacing:0px;opacity:0.3;fill:#661215;fill-opacity:1;stroke:none;stroke-width:1;stroke-linecap:butt;stroke-linejoin:miter;stroke-miterlimit:4;stroke-dasharray:none;stroke-dashoffset:0;stroke-opacity:1;marker:none"
     x="7.0651035"
     y="44.133144"
     id="text4284-0"><tspan
       style="fill:#661215;fill-opacity:1;stroke:none;stroke-width:1;stroke-linecap:butt;stroke-linejoin:miter;stroke-miterlimit:4;stroke-dasharray:none;stroke-dashoffset:0;stroke-opacity:1;marker:none"
       sodipodi:role="line"
       id="tspan4282-5"
       x="7.0651035"
       y="44.133144">MF</tspan></text>
  <text
     xml:space="preserve"
     style="font-style:normal;font-variant:normal;font-weight:900;font-stretch:normal;font-size:26.66666603px;line-height:25px;font-family:'Daniel Black';-inkscape-font-specification:'Daniel Black, Heavy';font-variant-ligatures:normal;font-variant-position:normal;font-variant-caps:normal;font-variant-numeric:normal;font-variant-alternates:normal;font-feature-settings:normal;text-indent:0;text-align:start;text-decoration:none;text-decoration-line:none;text-decoration-style:solid;text-decoration-color:#000000;letter-spacing:0px;word-spacing:0px;text-transform:none;writing-mode:lr-tb;direction:ltr;text-orientation:mixed;dominant-baseline:auto;baseline-shift:baseline;text-anchor:start;white-space:normal;shape-padding:0;opacity:1;fill:url(#linearGradient4385-4);fill-opacity:1;stroke:none;stroke-width:1;stroke-linecap:butt;stroke-linejoin:miter;stroke-miterlimit:4;stroke-dasharray:none;stroke-dashoffset:0;stroke-opacity:1;marker:none"
     x="7.0651035"
     y="43.132812"
     id="text4284"><tspan
       style="fill:url(#linearGradient4385-4)"
       sodipodi:role="line"
       id="tspan4282"
       x="7.0651035"
       y="43.132812">MF</tspan></text>
</svg>
